<svg width="24" height="25" viewBox="0 0 24 25" fill="none" xmlns="http://www.w3.org/2000/svg">
<path d="M12 4.10864C11.4477 4.10864 11 3.64873 11 3.08148V1.02716C11 0.459911 11.4477 0 12 0C12.5523 0 13 0.459911 13 1.02716V3.08148C13 3.64873 12.5523 4.10864 12 4.10864Z" fill="#191D38"/>
<path d="M18.3638 6.81683C18.1079 6.81683 17.852 6.71652 17.6567 6.51591C17.2661 6.11468 17.2661 5.46468 17.6567 5.06345L19.0713 3.61049C19.4619 3.20926 20.0947 3.20926 20.4854 3.61049C20.876 4.01172 20.876 4.66172 20.4854 5.06295L19.0708 6.51591C18.8755 6.71652 18.6196 6.81683 18.3638 6.81683Z" fill="#191D38"/>
<path d="M23 13.3531H21C20.4477 13.3531 20 12.8932 20 12.326C20 11.7587 20.4477 11.2988 21 11.2988H23C23.5522 11.2988 24 11.7587 24 12.326C24 12.8932 23.5522 13.3531 23 13.3531Z" fill="#191D38"/>
<path d="M3 13.3531H1C0.44775 13.3531 0 12.8932 0 12.326C0 11.7587 0.44775 11.2988 1 11.2988H3C3.55225 11.2988 4 11.7587 4 12.326C4 12.8932 3.55225 13.3531 3 13.3531Z" fill="#191D38"/>
<path d="M5.63623 6.81683C5.38037 6.81683 5.12451 6.71652 4.9292 6.51591L3.51465 5.06295C3.12402 4.66172 3.12402 4.01172 3.51465 3.61049C3.90527 3.20926 4.53809 3.20926 4.92871 3.61049L6.34326 5.06345C6.73389 5.46468 6.73389 6.11468 6.34326 6.51591C6.14795 6.71652 5.89209 6.81683 5.63623 6.81683Z" fill="#191D38"/>
<path d="M12 7.19043C9.24316 7.19043 7 9.49451 7 12.3262V23.6249C7 24.1922 7.44775 24.6521 8 24.6521H16C16.5522 24.6521 17 24.1922 17 23.6249V12.3262C17 9.49451 14.7568 7.19043 12 7.19043ZM15 13.3534C14.3717 13.6041 13.3381 13.9261 12.0312 13.9311C10.6919 13.9364 9.63428 13.6065 9 13.3534C9 13.0109 9 12.6686 9 12.3262C9 10.6244 10.3431 9.24474 12 9.24474C13.6569 9.24474 15 10.6244 15 12.3262V13.3534Z" fill="#191D38"/>
</svg>
