<svg width="21" height="25" viewBox="0 0 21 25" fill="none" xmlns="http://www.w3.org/2000/svg">
<path d="M19.8983 9.81925C19.7303 9.46796 19.3823 9.24609 19.0013 9.24609H11.1183L11.9943 1.14183C12.0443 0.683715 11.7903 0.2482 11.3743 0.0756378C10.9573 -0.0989788 10.4803 0.0366059 10.2073 0.401246L0.207276 13.7543C-0.0247234 14.0645 -0.0657235 14.4836 0.103276 14.8349C0.272276 15.1872 0.620276 15.409 1.00128 15.409H8.88426L8.00827 23.5133C7.95827 23.9714 8.21227 24.4069 8.62827 24.5795C8.74926 24.6298 8.87626 24.6534 9.00126 24.6534C9.30526 24.6534 9.60126 24.5107 9.79426 24.2529L19.7943 10.8998C20.0263 10.5896 20.0662 10.1705 19.8983 9.81925Z" fill="#191D38"/>
</svg>
