<svg width="20" height="25" viewBox="0 0 20 25" fill="none" xmlns="http://www.w3.org/2000/svg">
<path d="M19 0H1C0.4 0 0 0.410861 0 1.02715V23.6245C0 24.2408 0.4 24.6517 1 24.6517H19C19.6 24.6517 20 24.2408 20 23.6245V1.02715C20 0.410861 19.6 0 19 0ZM9 9.24438H14V11.2987H9V9.24438ZM7 19.5159H4V17.4616H7V19.5159ZM7 15.4073H4V13.353H7V15.4073ZM7 11.2987H4V9.24438H7V11.2987ZM7 7.19007H4V5.13577H7V7.19007ZM13 19.5159H9V17.4616H13V19.5159ZM16 15.4073H9V13.353H16V15.4073ZM16 7.19007H9V5.13577H16V7.19007Z" fill="#191D38"/>
</svg>
