<svg width="74" height="29" viewBox="0 0 74 29" fill="none" xmlns="http://www.w3.org/2000/svg">
<circle cx="38.5" cy="3" r="3" fill="#191D38"/>
<path fill-rule="evenodd" clip-rule="evenodd" d="M36.1418 8.46336L37 22.306H39.9536L40.7984 8.68152C40.1557 8.89286 39.469 9.00719 38.7556 9.00719C37.8263 9.00719 36.9422 8.81314 36.1418 8.46336ZM17.1046 10.1574C16.5756 5.76756 13.2531 3.24316 8.85394 3.24316C3.83299 3.24316 0 6.78845 0 13.0066C0 19.2062 3.76803 22.7701 8.85394 22.7701C13.7264 22.7701 16.6684 19.5311 17.1046 16.0322L13.0396 16.0136C12.6591 18.0461 11.0628 19.2155 8.9189 19.2155C6.03256 19.2155 4.0743 17.0716 4.0743 13.0066C4.0743 9.05298 6.00471 6.79773 8.94675 6.79773C11.1463 6.79773 12.7333 8.06921 13.0396 10.1574H17.1046ZM23.8657 14.2688C23.875 12.4312 24.998 11.3546 26.6129 11.3546C28.2184 11.3546 29.1651 12.3848 29.1558 14.1389V22.5102H33.1095V13.4335C33.1187 10.0924 31.1512 8.06921 28.1813 8.06921C26.0189 8.06921 24.5711 9.09011 23.9214 10.7699H23.7544V3.50303H19.9121V22.5102H23.8657V14.2688ZM47.7308 14.2688C47.7401 12.4312 48.8353 11.3546 50.4316 11.3546C52.0186 11.3546 52.9745 12.3941 52.9652 14.1389V22.5102H56.9189V13.4335C56.9189 10.111 54.9699 8.06921 52 8.06921C49.884 8.06921 48.3526 9.10867 47.7123 10.7699H47.5452V8.25483H43.7772V22.5102H47.7308V14.2688ZM73.4272 22.6494C73.4272 26.204 70.5316 28.0602 66.4573 28.0602C62.615 28.0602 60.4154 26.3339 59.9421 24.1808L63.5988 23.6889C63.9236 24.4592 64.8053 25.2202 66.5501 25.2202C68.267 25.2202 69.52 24.4592 69.52 22.5938V19.9858H69.3529C68.8332 21.1645 67.5617 22.306 65.2879 22.306C62.0767 22.306 59.5059 20.0972 59.5059 15.3547C59.5059 10.5008 62.151 8.06921 65.2786 8.06921C67.6638 8.06921 68.8239 9.48918 69.3529 10.6493H69.5014V8.25483H73.4272V22.6494ZM63.5431 15.3361C63.5431 17.7955 64.6011 19.3362 66.5408 19.3362C68.4434 19.3362 69.5385 17.8512 69.5385 15.3361C69.5385 12.8396 68.4619 11.2154 66.5408 11.2154C64.5825 11.2154 63.5431 12.9138 63.5431 15.3361Z" fill="#191D38"/>
</svg>
