<svg width="24" height="19" viewBox="0 0 24 19" fill="none" xmlns="http://www.w3.org/2000/svg">
<path d="M23.25 0H0.75C0.336 0 0 0.345125 0 0.770368V17.7185C0 18.1437 0.336 18.4888 0.75 18.4888H23.25C23.664 18.4888 24 18.1437 24 17.7185V0.770368C24 0.345125 23.664 0 23.25 0ZM21 12.3259H20.25C18.9675 12.3259 18 13.3197 18 14.637V15.4074H6V14.637C6 13.3197 5.0325 12.3259 3.75 12.3259H3V6.16294H3.75C5.0325 6.16294 6 5.16917 6 3.85184V3.08147H18V3.85184C18 5.16917 18.9675 6.16294 20.25 6.16294H21V12.3259Z" fill="#191D38"/>
<path d="M16.572 4.62207H7.428C7.137 6.15201 5.9895 7.33066 4.5 7.62956V10.8581C5.9895 11.1578 7.137 12.3365 7.428 13.8664H16.5712C16.863 12.3365 18.0097 11.1578 19.4992 10.8589V7.63033C18.0105 7.33066 16.863 6.15201 16.572 4.62207ZM12 11.5553C10.7572 11.5553 9.75 10.5207 9.75 9.24423C9.75 7.96775 10.7572 6.93315 12 6.93315C13.2427 6.93315 14.25 7.96775 14.25 9.24423C14.25 10.5207 13.2427 11.5553 12 11.5553Z" fill="#191D38"/>
</svg>
